<svg width="16" height="17" viewBox="0 0 16 17" fill="none" xmlns="http://www.w3.org/2000/svg">
<path d="M3.58143 16.1171H0.264286V5.43473H3.58143V16.1171ZM1.92107 3.97755C0.860357 3.97755 0 3.09896 0 2.03823C7.59214e-09 1.52871 0.202398 1.04007 0.562669 0.679793C0.92294 0.319514 1.41157 0.117111 1.92107 0.117111C2.43057 0.117111 2.9192 0.319514 3.27947 0.679793C3.63974 1.04007 3.84214 1.52871 3.84214 2.03823C3.84214 3.09896 2.98143 3.97755 1.92107 3.97755ZM15.9964 16.1171H12.6864V10.917C12.6864 9.67768 12.6614 8.08836 10.9618 8.08836C9.23714 8.08836 8.97286 9.43482 8.97286 10.8277V16.1171H5.65929V5.43473H8.84071V6.89191H8.88714C9.33 6.0526 10.4118 5.16687 12.0257 5.16687C15.3829 5.16687 16 7.37763 16 10.2491V16.1171H15.9964Z" fill="#A3A3A3"/>
</svg>
